<mxfile host="app.diagrams.net" modified="2024-03-18T23:57:18.389Z" agent="Mozilla/5.0 (Macintosh; Intel Mac OS X 10_15_7) AppleWebKit/537.36 (KHTML, like Gecko) Chrome/122.0.0.0 Safari/537.36" etag="YQ5OchF3fUTWpY927mvj" version="24.0.7" type="github">
  <diagram name="第 1 页" id="HZbxji-LXRyyVZfFe1fu">
    <mxGraphModel dx="978" dy="545" grid="1" gridSize="10" guides="1" tooltips="1" connect="1" arrows="1" fold="1" page="1" pageScale="1" pageWidth="1700" pageHeight="1100" math="0" shadow="0">
      <root>
        <mxCell id="0" />
        <mxCell id="1" parent="0" />
        <mxCell id="0x9lJMbSukGHkaMYRuMV-1" value="" style="rounded=0;whiteSpace=wrap;html=1;" vertex="1" parent="1">
          <mxGeometry x="160" y="110" width="200" height="320" as="geometry" />
        </mxCell>
        <mxCell id="0x9lJMbSukGHkaMYRuMV-2" value="carbonData(行为数据)" style="rounded=1;whiteSpace=wrap;html=1;" vertex="1" parent="1">
          <mxGeometry x="200" y="140" width="120" height="60" as="geometry" />
        </mxCell>
        <mxCell id="0x9lJMbSukGHkaMYRuMV-3" value="kudu(属性数据)" style="rounded=1;whiteSpace=wrap;html=1;" vertex="1" parent="1">
          <mxGeometry x="200" y="230" width="120" height="60" as="geometry" />
        </mxCell>
        <mxCell id="0x9lJMbSukGHkaMYRuMV-4" value="mysql(结构元数据)" style="rounded=1;whiteSpace=wrap;html=1;" vertex="1" parent="1">
          <mxGeometry x="200" y="320" width="120" height="60" as="geometry" />
        </mxCell>
        <mxCell id="0x9lJMbSukGHkaMYRuMV-5" value="Query&lt;div&gt;Engin&lt;/div&gt;&lt;div&gt;(查询引擎)&lt;/div&gt;" style="rounded=0;whiteSpace=wrap;html=1;" vertex="1" parent="1">
          <mxGeometry x="440" y="110" width="50" height="320" as="geometry" />
        </mxCell>
        <mxCell id="0x9lJMbSukGHkaMYRuMV-6" value="接口程序" style="rounded=0;whiteSpace=wrap;html=1;" vertex="1" parent="1">
          <mxGeometry x="570" y="110" width="50" height="320" as="geometry" />
        </mxCell>
        <mxCell id="0x9lJMbSukGHkaMYRuMV-7" value="CRM系统" style="rounded=0;whiteSpace=wrap;html=1;" vertex="1" parent="1">
          <mxGeometry x="700" y="110" width="90" height="320" as="geometry" />
        </mxCell>
        <mxCell id="0x9lJMbSukGHkaMYRuMV-8" value="AE用户行为分析平台" style="text;html=1;align=center;verticalAlign=middle;whiteSpace=wrap;rounded=0;fontSize=14;fontStyle=1" vertex="1" parent="1">
          <mxGeometry x="140" y="80" width="170" height="30" as="geometry" />
        </mxCell>
        <mxCell id="0x9lJMbSukGHkaMYRuMV-10" value="" style="endArrow=classic;startArrow=classic;html=1;rounded=0;dashed=1;shape=flexArrow;entryX=0;entryY=0.531;entryDx=0;entryDy=0;entryPerimeter=0;exitX=1.01;exitY=0.533;exitDx=0;exitDy=0;exitPerimeter=0;" edge="1" parent="1" source="0x9lJMbSukGHkaMYRuMV-1" target="0x9lJMbSukGHkaMYRuMV-5">
          <mxGeometry width="100" height="100" relative="1" as="geometry">
            <mxPoint x="370" y="280" as="sourcePoint" />
            <mxPoint x="430" y="280" as="targetPoint" />
          </mxGeometry>
        </mxCell>
        <mxCell id="0x9lJMbSukGHkaMYRuMV-11" value="" style="endArrow=classic;startArrow=classic;html=1;rounded=0;dashed=1;shape=flexArrow;entryX=0;entryY=0.531;entryDx=0;entryDy=0;entryPerimeter=0;exitX=1.01;exitY=0.533;exitDx=0;exitDy=0;exitPerimeter=0;" edge="1" parent="1">
          <mxGeometry width="100" height="100" relative="1" as="geometry">
            <mxPoint x="490" y="281" as="sourcePoint" />
            <mxPoint x="568" y="280" as="targetPoint" />
          </mxGeometry>
        </mxCell>
        <mxCell id="0x9lJMbSukGHkaMYRuMV-12" value="" style="endArrow=classic;startArrow=classic;html=1;rounded=0;dashed=1;shape=flexArrow;entryX=0;entryY=0.531;entryDx=0;entryDy=0;entryPerimeter=0;exitX=1.01;exitY=0.533;exitDx=0;exitDy=0;exitPerimeter=0;" edge="1" parent="1">
          <mxGeometry width="100" height="100" relative="1" as="geometry">
            <mxPoint x="620" y="281" as="sourcePoint" />
            <mxPoint x="698" y="280" as="targetPoint" />
          </mxGeometry>
        </mxCell>
      </root>
    </mxGraphModel>
  </diagram>
</mxfile>
